<?xml version="1.0" encoding="UTF-8"?>
<svg xmlns="http://www.w3.org/2000/svg" xmlns:xlink="http://www.w3.org/1999/xlink" width="200px" height="150px" viewBox="0 0 160 120" version="1.1">
<g id="surface1">
<rect x="0" y="0" width="160" height="120" style="fill:rgb(100%,100%,100%);fill-opacity:1;stroke:none;"/>
<path style=" stroke:none;fill-rule:nonzero;fill:rgb(0%,21.960784%,65.882353%);fill-opacity:1;" d="M 66.5 13.324219 L 160 13.324219 L 160 26.675781 L 66.5 26.675781 Z M 66.5 40 L 160 40 L 160 53.324219 L 66.5 53.324219 Z M 0 66.675781 L 160 66.675781 L 160 80 L 0 80 Z M 0 93.324219 L 160 93.324219 L 160 106.675781 L 0 106.675781 Z M 0 93.324219 "/>
<path style="fill-rule:nonzero;fill:rgb(98.823529%,81.960784%,8.627451%);fill-opacity:1;stroke-width:0.6;stroke-linecap:square;stroke-linejoin:miter;stroke:rgb(0%,0%,0%);stroke-opacity:1;stroke-miterlimit:20;" d="M 1.501173 8.999811 L 6.002119 12.001615 C -2.000412 25.002563 7.00208 26.99884 -0.00159651 33.001745 C 3.001347 25.998061 -3.001551 28.000233 -3.001445 16.001996 " transform="matrix(0.677511,0.280634,-0.280634,0.677511,33.325,33.325)"/>
<path style="fill:none;stroke-width:0.6;stroke-linecap:butt;stroke-linejoin:miter;stroke:rgb(0%,0%,0%);stroke-opacity:1;stroke-miterlimit:20;" d="M 0.000180286 10.999518 C -2.000772 23.9995 4.499702 28.000765 -0.00159651 33.001745 " transform="matrix(0.677511,0.280634,-0.280634,0.677511,33.325,33.325)"/>
<path style="fill-rule:nonzero;fill:rgb(98.823529%,81.960784%,8.627451%);fill-opacity:1;stroke-width:0.6;stroke-linecap:butt;stroke-linejoin:miter;stroke:rgb(0%,0%,0%);stroke-opacity:1;stroke-miterlimit:20;" d="M -0.00106534 -0.00106534 L 6.002138 -0.00106534 L -0.00106534 32.997907 L -5.998941 -0.00106534 L -0.00106534 -0.00106534 L -0.00106534 32.997907 " transform="matrix(0.733333,0,0,0.733333,33.325,33.325)"/>
<path style="fill-rule:nonzero;fill:rgb(98.823529%,81.960784%,8.627451%);fill-opacity:1;stroke-width:0.6;stroke-linecap:square;stroke-linejoin:miter;stroke:rgb(0%,0%,0%);stroke-opacity:1;stroke-miterlimit:20;" d="M 1.500313 9.000005 L 6.000293 11.999779 C -2.002745 25.001432 6.9995 27.000607 0.000851078 32.997977 C 2.997448 26.00018 -3.002812 28.00042 -3.00088 15.997262 " transform="matrix(0.280634,0.677511,-0.677511,0.280634,33.325,33.325)"/>
<path style="fill:none;stroke-width:0.6;stroke-linecap:butt;stroke-linejoin:miter;stroke:rgb(0%,0%,0%);stroke-opacity:1;stroke-miterlimit:20;" d="M -0.00296416 11.000671 C -1.997464 24.000407 4.498441 27.999888 0.000851078 32.997977 " transform="matrix(0.280634,0.677511,-0.677511,0.280634,33.325,33.325)"/>
<path style="fill-rule:nonzero;fill:rgb(98.823529%,81.960784%,8.627451%);fill-opacity:1;stroke-width:0.6;stroke-linecap:butt;stroke-linejoin:miter;stroke:rgb(0%,0%,0%);stroke-opacity:1;stroke-miterlimit:20;" d="M -0.00150662 0.000000000000000499 L 6.002379 0.000000000000000499 L 0.00225993 32.998772 L -5.997859 0.000000000000000499 L -0.00150662 0.000000000000000499 L 0.00225993 32.998772 " transform="matrix(0.518544,0.518544,-0.518544,0.518544,33.325,33.325)"/>
<path style="fill-rule:nonzero;fill:rgb(98.823529%,81.960784%,8.627451%);fill-opacity:1;stroke-width:0.6;stroke-linecap:square;stroke-linejoin:miter;stroke:rgb(0%,0%,0%);stroke-opacity:1;stroke-miterlimit:20;" d="M 1.501988 9.001779 L 6.000896 11.998663 C -2.001635 24.999611 7.002895 27.000809 -0.00281957 32.998793 C 3.002162 26.00003 -3.000735 28.002202 -3.002668 15.999044 " transform="matrix(-0.280634,0.677511,-0.677511,-0.280634,33.325,33.325)"/>
<path style="fill:none;stroke-width:0.6;stroke-linecap:butt;stroke-linejoin:miter;stroke:rgb(0%,0%,0%);stroke-opacity:1;stroke-miterlimit:20;" d="M 0.000995664 11.001486 C -1.999956 24.001468 4.498479 27.997813 -0.00281957 32.998793 " transform="matrix(-0.280634,0.677511,-0.677511,-0.280634,33.325,33.325)"/>
<path style="fill-rule:nonzero;fill:rgb(98.823529%,81.960784%,8.627451%);fill-opacity:1;stroke-width:0.6;stroke-linecap:butt;stroke-linejoin:miter;stroke:rgb(0%,0%,0%);stroke-opacity:1;stroke-miterlimit:20;" d="M -0.00106534 0.00106534 L 6.002138 0.00106534 L -0.00106534 33.000038 L -5.998941 0.00106534 L -0.00106534 0.00106534 L -0.00106534 33.000038 " transform="matrix(0.000000000000000045,0.733333,-0.733333,0.000000000000000045,33.325,33.325)"/>
<path style="fill-rule:nonzero;fill:rgb(98.823529%,81.960784%,8.627451%);fill-opacity:1;stroke-width:0.6;stroke-linecap:square;stroke-linejoin:miter;stroke:rgb(0%,0%,0%);stroke-opacity:1;stroke-miterlimit:20;" d="M 1.502281 9.000821 L 6.002262 12.000595 C -2.000777 25.002247 7.001469 27.001423 0.00281957 32.998793 C 2.999417 26.000996 -3.000844 28.001235 -2.998911 15.998077 " transform="matrix(-0.677511,0.280634,-0.280634,-0.677511,33.325,33.325)"/>
<path style="fill:none;stroke-width:0.6;stroke-linecap:butt;stroke-linejoin:miter;stroke:rgb(0%,0%,0%);stroke-opacity:1;stroke-miterlimit:20;" d="M -0.000995664 11.001486 C -2.000417 23.999184 4.500409 28.000703 0.00281957 32.998793 " transform="matrix(-0.677511,0.280634,-0.280634,-0.677511,33.325,33.325)"/>
<path style="fill-rule:nonzero;fill:rgb(98.823529%,81.960784%,8.627451%);fill-opacity:1;stroke-width:0.6;stroke-linecap:butt;stroke-linejoin:miter;stroke:rgb(0%,0%,0%);stroke-opacity:1;stroke-miterlimit:20;" d="M 0.000000000000000499 0.00150662 L 6.000119 -0.00225993 L -0.000000000000003054 32.996513 L -6.000119 -0.00225993 L 0.000000000000000499 0.00150662 L -0.000000000000003054 32.996513 " transform="matrix(-0.518544,0.518544,-0.518544,-0.518544,33.325,33.325)"/>
<path style="fill-rule:nonzero;fill:rgb(98.823529%,81.960784%,8.627451%);fill-opacity:1;stroke-width:0.6;stroke-linecap:square;stroke-linejoin:miter;stroke:rgb(0%,0%,0%);stroke-opacity:1;stroke-miterlimit:20;" d="M 1.499035 9.003002 L 5.997944 11.999886 C -1.999666 24.998795 6.999943 27.002032 -0.000851078 32.997977 C 2.999209 26.001253 -2.998767 28.001386 -3.000699 15.998228 " transform="matrix(-0.677511,-0.280634,0.280634,-0.677511,33.325,33.325)"/>
<path style="fill:none;stroke-width:0.6;stroke-linecap:butt;stroke-linejoin:miter;stroke:rgb(0%,0%,0%);stroke-opacity:1;stroke-miterlimit:20;" d="M 0.00296416 11.000671 C -1.997988 24.000653 4.500448 27.996997 -0.000851078 32.997977 " transform="matrix(-0.677511,-0.280634,0.280634,-0.677511,33.325,33.325)"/>
<path style="fill-rule:nonzero;fill:rgb(98.823529%,81.960784%,8.627451%);fill-opacity:1;stroke-width:0.6;stroke-linecap:butt;stroke-linejoin:miter;stroke:rgb(0%,0%,0%);stroke-opacity:1;stroke-miterlimit:20;" d="M 0.00106534 0.00106534 L 5.998941 0.00106534 L 0.00106534 33.000038 L -6.002138 0.00106534 L 0.00106534 0.00106534 L 0.00106534 33.000038 " transform="matrix(-0.733333,0,0,-0.733333,33.325,33.325)"/>
<path style="fill-rule:nonzero;fill:rgb(98.823529%,81.960784%,8.627451%);fill-opacity:1;stroke-width:0.6;stroke-linecap:square;stroke-linejoin:miter;stroke:rgb(0%,0%,0%);stroke-opacity:1;stroke-miterlimit:20;" d="M 1.503097 8.998852 L 6.003077 11.998626 C -1.999962 25.000279 7.002284 26.999454 0.00159651 33.001745 C 3.000232 25.999027 -3.000028 27.999267 -3.000134 16.00103 " transform="matrix(-0.280634,-0.677511,0.677511,-0.280634,33.325,33.325)"/>
<path style="fill:none;stroke-width:0.6;stroke-linecap:butt;stroke-linejoin:miter;stroke:rgb(0%,0%,0%);stroke-opacity:1;stroke-miterlimit:20;" d="M -0.000180286 10.999518 C -2.00164 24.002137 4.501225 27.998735 0.00159651 33.001745 " transform="matrix(-0.280634,-0.677511,0.677511,-0.280634,33.325,33.325)"/>
<path style="fill-rule:nonzero;fill:rgb(98.823529%,81.960784%,8.627451%);fill-opacity:1;stroke-width:0.6;stroke-linecap:butt;stroke-linejoin:miter;stroke:rgb(0%,0%,0%);stroke-opacity:1;stroke-miterlimit:20;" d="M 0.00150662 -0.000000000000000499 L 5.997859 -0.000000000000000499 L -0.00225993 32.998772 L -6.002379 -0.000000000000000499 L 0.00150662 -0.000000000000000499 L -0.00225993 32.998772 " transform="matrix(-0.518544,-0.518544,0.518544,-0.518544,33.325,33.325)"/>
<path style="fill-rule:nonzero;fill:rgb(98.823529%,81.960784%,8.627451%);fill-opacity:1;stroke-width:0.6;stroke-linecap:square;stroke-linejoin:miter;stroke:rgb(0%,0%,0%);stroke-opacity:1;stroke-miterlimit:20;" d="M 1.49822 9.001034 L 5.999167 12.002838 C -1.998443 25.001748 6.999127 27.000063 0.000371988 33.00093 C 2.998394 25.999284 -2.999582 27.999418 -2.999476 16.001181 " transform="matrix(0.280634,-0.677511,0.677511,0.280634,33.325,33.325)"/>
<path style="fill:none;stroke-width:0.6;stroke-linecap:butt;stroke-linejoin:miter;stroke:rgb(0%,0%,0%);stroke-opacity:1;stroke-miterlimit:20;" d="M 0.00214878 10.998703 C -1.998803 23.998684 4.501671 27.99995 0.000371988 33.00093 " transform="matrix(0.280634,-0.677511,0.677511,0.280634,33.325,33.325)"/>
<path style="fill-rule:nonzero;fill:rgb(98.823529%,81.960784%,8.627451%);fill-opacity:1;stroke-width:0.6;stroke-linecap:butt;stroke-linejoin:miter;stroke:rgb(0%,0%,0%);stroke-opacity:1;stroke-miterlimit:20;" d="M 0.00106534 -0.00106534 L 5.998941 -0.00106534 L 0.00106534 32.997907 L -6.002138 -0.00106534 L 0.00106534 -0.00106534 L 0.00106534 32.997907 " transform="matrix(-0.000000000000000045,-0.733333,0.733333,-0.000000000000000045,33.325,33.325)"/>
<path style="fill-rule:nonzero;fill:rgb(98.823529%,81.960784%,8.627451%);fill-opacity:1;stroke-width:0.6;stroke-linecap:square;stroke-linejoin:miter;stroke:rgb(0%,0%,0%);stroke-opacity:1;stroke-miterlimit:20;" d="M 1.501128 8.998037 L 6.001109 11.997811 C -2.00193 24.999464 7.000315 26.998639 -0.000371988 33.00093 C 2.998264 25.998212 -3.001997 27.998452 -3.002103 16.000215 " transform="matrix(0.677511,-0.280634,0.280634,0.677511,33.325,33.325)"/>
<path style="fill:none;stroke-width:0.6;stroke-linecap:butt;stroke-linejoin:miter;stroke:rgb(0%,0%,0%);stroke-opacity:1;stroke-miterlimit:20;" d="M -0.00214878 10.998703 C -1.998687 24.00336 4.499256 27.997919 -0.000371988 33.00093 " transform="matrix(0.677511,-0.280634,0.280634,0.677511,33.325,33.325)"/>
<path style="fill-rule:nonzero;fill:rgb(98.823529%,81.960784%,8.627451%);fill-opacity:1;stroke-width:0.6;stroke-linecap:butt;stroke-linejoin:miter;stroke:rgb(0%,0%,0%);stroke-opacity:1;stroke-miterlimit:20;" d="M -0.000000000000000499 -0.00150662 L 6.000119 0.00225993 L -0.000000000000007605 33.001032 L -6.000119 0.00225993 L -0.000000000000000499 -0.00150662 L -0.000000000000007605 33.001032 " transform="matrix(0.518544,-0.518544,0.518544,0.518544,33.325,33.325)"/>
<path style="fill-rule:nonzero;fill:rgb(98.823529%,81.960784%,8.627451%);fill-opacity:1;stroke-width:0.6;stroke-linecap:butt;stroke-linejoin:miter;stroke:rgb(0%,0%,0%);stroke-opacity:1;stroke-miterlimit:20;" d="M 10.998592 -0.00106534 C 10.998592 6.076711 6.076711 10.998592 -0.00106534 10.998592 C -6.073515 10.998592 -11.000723 6.076711 -11.000723 -0.00106534 C -11.000723 -6.073515 -6.073515 -11.000723 -0.00106534 -11.000723 C 6.076711 -11.000723 10.998592 -6.073515 10.998592 -0.00106534 Z M 10.998592 -0.00106534 " transform="matrix(0.733333,0,0,0.733333,33.325,33.325)"/>
<path style=" stroke:none;fill-rule:nonzero;fill:rgb(0%,0%,0%);fill-opacity:1;" d="M 39.265625 30.097656 C 38.75 30.683594 38.457031 29.660156 36.625 29.660156 C 34.792969 29.660156 34.5 30.757812 34.203125 30.539062 C 33.910156 30.320312 35.746094 29 36.332031 28.925781 C 36.917969 28.851562 38.605469 29.4375 39.265625 30.097656 M 37.136719 30.757812 C 37.652344 31.199219 37.210938 32.152344 36.699219 32.152344 C 36.183594 32.152344 35.230469 31.273438 35.671875 30.683594 "/>
<path style=" stroke:none;fill-rule:nonzero;fill:rgb(0%,0%,0%);fill-opacity:1;" d="M 34.71875 31.417969 C 34.792969 30.539062 35.523438 30.390625 36.699219 30.390625 C 37.871094 30.390625 38.386719 31.273438 38.824219 31.492188 C 38.3125 31.492188 37.871094 30.757812 36.699219 30.757812 C 35.523438 30.757812 35.523438 30.757812 34.71875 31.492188 M 34.9375 31.636719 C 35.230469 31.199219 35.597656 32.078125 36.40625 32.078125 C 37.210938 32.078125 37.652344 31.859375 38.164062 31.492188 C 38.679688 31.125 37.429688 32.371094 36.625 32.371094 C 35.816406 32.371094 34.71875 31.933594 34.9375 31.636719 "/>
<path style=" stroke:none;fill-rule:nonzero;fill:rgb(0%,0%,0%);fill-opacity:1;" d="M 37.429688 32.078125 C 38.386719 31.566406 37.796875 30.832031 37.429688 30.683594 C 37.578125 30.832031 38.164062 31.566406 37.429688 32.078125 M 33.324219 36.476562 C 33.765625 36.476562 33.910156 36.332031 34.5 36.332031 C 35.085938 36.332031 36.476562 37.136719 37.285156 36.84375 C 35.597656 37.503906 36.257812 37.066406 33.324219 37.066406 L 32.957031 37.066406 M 37.578125 37.503906 C 37.285156 36.992188 37.359375 37.136719 36.773438 36.332031 C 37.359375 36.773438 37.503906 36.992188 37.578125 37.503906 M 33.324219 38.238281 C 35.160156 38.238281 34.863281 37.871094 37.285156 36.84375 C 35.523438 37.066406 35.160156 37.652344 33.324219 37.652344 L 32.957031 37.652344 M 33.324219 35.523438 C 33.839844 35.523438 33.984375 35.160156 34.570312 35.160156 C 35.160156 35.160156 35.964844 35.378906 36.332031 35.671875 C 36.40625 35.746094 36.113281 35.085938 35.523438 35.011719 C 34.9375 34.9375 35.160156 33.984375 34.5 33.839844 C 34.5 34.132812 34.71875 34.058594 34.792969 34.5 C 34.792969 34.863281 34.132812 34.863281 33.984375 34.5 C 34.132812 35.085938 33.691406 35.085938 33.324219 35.085938 "/>
<path style=" stroke:none;fill-rule:nonzero;fill:rgb(0%,0%,0%);fill-opacity:1;" d="M 27.386719 30.097656 C 27.898438 30.683594 28.191406 29.660156 30.023438 29.660156 C 31.859375 29.660156 32.152344 30.757812 32.445312 30.539062 C 32.738281 30.320312 30.90625 29 30.320312 28.925781 C 29.730469 28.851562 28.046875 29.4375 27.386719 30.097656 M 29.511719 30.757812 C 29 31.199219 29.4375 32.152344 29.953125 32.152344 C 30.464844 32.152344 31.417969 31.273438 30.976562 30.683594 "/>
<path style=" stroke:none;fill-rule:nonzero;fill:rgb(0%,0%,0%);fill-opacity:1;" d="M 31.933594 31.417969 C 31.859375 30.539062 31.125 30.390625 29.953125 30.390625 C 28.777344 30.390625 28.265625 31.273438 27.824219 31.492188 C 28.339844 31.492188 28.777344 30.757812 29.953125 30.757812 C 31.125 30.757812 31.125 30.757812 31.933594 31.492188 M 31.710938 31.636719 C 31.417969 31.199219 31.050781 32.078125 30.246094 32.078125 C 29.4375 32.078125 29 31.859375 28.484375 31.492188 C 27.972656 31.125 29.21875 32.371094 30.023438 32.371094 C 30.832031 32.371094 31.933594 31.933594 31.710938 31.636719 "/>
<path style=" stroke:none;fill-rule:nonzero;fill:rgb(0%,0%,0%);fill-opacity:1;" d="M 29.21875 32.078125 C 28.265625 31.566406 28.851562 30.832031 29.21875 30.683594 C 29.070312 30.832031 28.484375 31.566406 29.21875 32.078125 M 33.324219 36.476562 C 32.886719 36.476562 32.738281 36.332031 32.152344 36.332031 C 31.566406 36.332031 30.171875 37.136719 29.363281 36.84375 C 31.050781 37.503906 30.390625 37.066406 33.324219 37.066406 L 33.691406 37.066406 M 29.070312 37.503906 C 29.363281 36.992188 29.292969 37.136719 29.878906 36.332031 C 29.292969 36.773438 29.144531 36.992188 29.070312 37.503906 M 33.324219 38.238281 C 31.492188 38.238281 31.785156 37.871094 29.363281 36.84375 C 31.125 37.066406 31.492188 37.652344 33.324219 37.652344 L 33.691406 37.652344 M 33.324219 35.523438 C 32.8125 35.523438 32.664062 35.160156 32.078125 35.160156 C 31.492188 35.160156 30.683594 35.378906 30.320312 35.671875 C 30.246094 35.746094 30.539062 35.085938 31.125 35.011719 C 31.710938 34.9375 31.492188 33.984375 32.152344 33.839844 C 32.152344 34.132812 31.933594 34.058594 31.859375 34.5 C 31.859375 34.863281 32.519531 34.863281 32.664062 34.5 C 32.519531 35.085938 32.957031 35.085938 33.324219 35.085938 "/>
<path style=" stroke:none;fill-rule:nonzero;fill:rgb(0%,0%,0%);fill-opacity:1;" d="M 33.324219 38.898438 C 32.957031 38.898438 32.003906 39.117188 33.324219 39.117188 C 34.644531 39.117188 33.691406 38.898438 33.324219 38.898438 "/>
</g>
</svg>
