<svg id="Capa_2" data-name="Capa 2" xmlns="http://www.w3.org/2000/svg" viewBox="0 0 484 485.5"><defs><style>.cls-1,.cls-2{fill:#fd1a31;}.cls-1{stroke:#fd1a31;stroke-miterlimit:10;}</style></defs><path class="cls-1" d="M393.5,90.5l-23,23s-9,13,7,20h70s11-1,11-10v-68s-6-17-23-8l-22,23s-76-75-195-61-173,109-173,109-33,56-36,104-3,155,111,230,239,32,299-31,69-134,69-134,9-54-3-97c0,0-3-11-15-9s-12,12-12,13,15,62-3,116-51,106-119,136-126,17-171,0-92-56-116-121-13-132,9-174,58-81,106-99,62-17,110-16S385.5,78.5,393.5,90.5Z" transform="translate(-8.2 -7.3)"/><path class="cls-2" d="M162.7,379.2H115.5V205.8L85,216.1V171.5l37.4-15h40.3Z" transform="translate(-8.2 -7.3)"/><path class="cls-2" d="M249.7,373.6a62.4,62.4,0,0,1-25.8-23c-6.5-10.1-10.3-22-11.3-35.8h47.1c1,8.2,3.8,14.6,8.5,19.1s10.8,6.8,18.4,6.8,14.6-2.4,19.2-7.2,6.8-11.6,6.8-20.3V294.5c0-8.8-2.1-15.6-6.1-20.3s-9.8-7.1-17.2-7.1-12.5,1.5-17.3,4.5a24.6,24.6,0,0,0-9.9,12.9h-44v-128H352.5v40.4H265.2v39.4c3.6-3.1,8.4-5.5,14.6-7.3a64.4,64.4,0,0,1,18.3-2.7c13,0,24.1,2.7,33.3,8a51,51,0,0,1,21.1,23.3q7.2,15.3,7.2,36.9v18.7c0,14.3-2.9,26.7-8.7,36.9a56.4,56.4,0,0,1-25.2,23.3q-16.5,8.1-39.9,8.1A81.9,81.9,0,0,1,249.7,373.6Z" transform="translate(-8.2 -7.3)"/><path class="cls-2" d="M389.8,156.5H437v54.8l-47.2,40.1Z" transform="translate(-8.2 -7.3)"/></svg>